<svg width="42" height="42" viewBox="0 0 42 42" fill="none" xmlns="http://www.w3.org/2000/svg">
<rect width="42" height="42" fill="#1E1E1E"/>
<g id="Section 2">
<path d="M-1333 -420C-1333 -421.105 -1332.1 -422 -1331 -422H478C479.104 -422 480 -421.105 480 -420V3017C480 3018.1 479.105 3019 478 3019H-1331C-1332.1 3019 -1333 3018.1 -1333 3017V-420Z" fill="#404040"/>
<path d="M-1331 -421H478V-423H-1331V-421ZM479 -420V3017H481V-420H479ZM478 3018H-1331V3020H478V3018ZM-1332 3017V-420H-1334V3017H-1332ZM-1331 3018C-1331.55 3018 -1332 3017.55 -1332 3017H-1334C-1334 3018.66 -1332.66 3020 -1331 3020V3018ZM479 3017C479 3017.55 478.552 3018 478 3018V3020C479.657 3020 481 3018.66 481 3017H479ZM478 -421C478.552 -421 479 -420.552 479 -420H481C481 -421.657 479.657 -423 478 -423V-421ZM-1331 -423C-1332.66 -423 -1334 -421.657 -1334 -420H-1332C-1332 -420.552 -1331.55 -421 -1331 -421V-423Z" fill="white" fill-opacity="0.1"/>
<g id="Features 9">
<rect id="BG" x="-1220" y="-322" width="1600" height="996" fill="white"/>
<g id="List">
<g id="3">
<g id="board-2 1">
<g id="Group">
<path id="Vector" d="M41 1H1V41H41V1Z" stroke="#161616" stroke-width="2" stroke-miterlimit="10" stroke-linecap="round" stroke-linejoin="round"/>
<path id="Vector_2" d="M18 7H7V20H18V7Z" stroke="#161616" stroke-width="2" stroke-miterlimit="10" stroke-linecap="round" stroke-linejoin="round"/>
<path id="Vector_3" d="M18 26H7V35H18V26Z" stroke="#161616" stroke-width="2" stroke-miterlimit="10" stroke-linecap="round" stroke-linejoin="round"/>
<path id="Vector_4" d="M35 7H24V35H35V7Z" fill="#D4D4D8" stroke="#161616" stroke-width="2" stroke-miterlimit="10" stroke-linecap="round" stroke-linejoin="round"/>
</g>
</g>
</g>
<g id="Lines">
</g>
</g>
</g>
</g>
</svg>
