<svg width="42" height="42" viewBox="0 0 42 42" fill="none" xmlns="http://www.w3.org/2000/svg">
<rect width="42" height="42" fill="#1E1E1E"/>
<g id="Section 2">
<path d="M-453 -757C-453 -758.105 -452.105 -759 -451 -759H1358C1359.1 -759 1360 -758.105 1360 -757V2680C1360 2681.1 1359.1 2682 1358 2682H-451C-452.105 2682 -453 2681.1 -453 2680V-757Z" fill="#404040"/>
<path d="M-451 -758H1358V-760H-451V-758ZM1359 -757V2680H1361V-757H1359ZM1358 2681H-451V2683H1358V2681ZM-452 2680V-757H-454V2680H-452ZM-451 2681C-451.552 2681 -452 2680.55 -452 2680H-454C-454 2681.66 -452.657 2683 -451 2683V2681ZM1359 2680C1359 2680.55 1358.55 2681 1358 2681V2683C1359.66 2683 1361 2681.66 1361 2680H1359ZM1358 -758C1358.55 -758 1359 -757.552 1359 -757H1361C1361 -758.657 1359.66 -760 1358 -760V-758ZM-451 -760C-452.657 -760 -454 -758.657 -454 -757H-452C-452 -757.552 -451.552 -758 -451 -758V-760Z" fill="white" fill-opacity="0.1"/>
<g id="Features 9">
<rect id="BG" x="-340" y="-659" width="1600" height="996" fill="white"/>
<g id="List">
<g id="4">
<g id="archive-content 1">
<path id="Vector 1" d="M9.66667 25H6C3.23858 25 1 27.2386 1 30V37C1 39.7614 3.23858 42 6 42H36C38.7614 42 41 39.7614 41 37V30C41 27.2386 38.7614 25 36 25H31.8333C30.2685 25 29 26.2685 29 27.8333C29 29.3981 27.7315 30.6667 26.1667 30.6667H15.3333C13.7685 30.6667 12.5 29.3981 12.5 27.8333C12.5 26.2685 11.2315 25 9.66667 25Z" fill="#D4D4D8"/>
<g id="Group">
<path id="Vector" d="M9 9H33" stroke="#161616" stroke-width="2" stroke-miterlimit="10" stroke-linecap="round" stroke-linejoin="round"/>
<path id="Vector_2" d="M9 17H33" stroke="#161616" stroke-width="2" stroke-miterlimit="10" stroke-linecap="round" stroke-linejoin="round"/>
<path id="Vector_3" d="M1 25H13V31H29V25H41" stroke="#161616" stroke-width="2" stroke-miterlimit="10" stroke-linecap="round" stroke-linejoin="round"/>
<path id="Vector_4" d="M37 1H5C2.79086 1 1 2.79086 1 5V37C1 39.2091 2.79086 41 5 41H37C39.2091 41 41 39.2091 41 37V5C41 2.79086 39.2091 1 37 1Z" stroke="#161616" stroke-width="2" stroke-miterlimit="10" stroke-linecap="round" stroke-linejoin="round"/>
</g>
</g>
</g>
<g id="Lines">
</g>
</g>
</g>
</g>
</svg>
