<svg width="46" height="42" viewBox="0 0 46 42" fill="none" xmlns="http://www.w3.org/2000/svg">
<rect width="46" height="42" fill="#1E1E1E"/>
<g id="Section 2">
<path d="M-891 -757C-891 -758.105 -890.105 -759 -889 -759H920C921.104 -759 922 -758.105 922 -757V2680C922 2681.1 921.105 2682 920 2682H-889C-890.105 2682 -891 2681.1 -891 2680V-757Z" fill="#404040"/>
<path d="M-889 -758H920V-760H-889V-758ZM921 -757V2680H923V-757H921ZM920 2681H-889V2683H920V2681ZM-890 2680V-757H-892V2680H-890ZM-889 2681C-889.552 2681 -890 2680.55 -890 2680H-892C-892 2681.66 -890.657 2683 -889 2683V2681ZM921 2680C921 2680.55 920.552 2681 920 2681V2683C921.657 2683 923 2681.66 923 2680H921ZM920 -758C920.552 -758 921 -757.552 921 -757H923C923 -758.657 921.657 -760 920 -760V-758ZM-889 -760C-890.657 -760 -892 -758.657 -892 -757H-890C-890 -757.552 -889.552 -758 -889 -758V-760Z" fill="white" fill-opacity="0.1"/>
<g id="Features 9">
<rect id="BG" x="-778" y="-659" width="1600" height="996" fill="white"/>
<g id="List">
<g id="5">
<g id="folder-favorite 1">
<g id="Group">
<path id="Vector" d="M30.562 18.4609C30.0511 17.9392 29.4292 17.5392 28.7426 17.2907C28.0559 17.0422 27.3221 16.9516 26.5956 17.0256C25.8692 17.0996 25.1687 17.3362 24.5462 17.718C23.9237 18.0998 23.3952 18.6169 23 19.2309C22.6049 18.6167 22.0764 18.0995 21.4539 17.7176C20.8315 17.3357 20.1309 17.099 19.4044 17.025C18.6779 16.951 17.944 17.0417 17.2573 17.2903C16.5706 17.5389 15.9488 17.939 15.438 18.4609C14.5163 19.4035 14.0002 20.6695 14.0002 21.9879C14.0002 23.3063 14.5163 24.5722 15.438 25.5149L23 33.1999L30.564 25.5159C31.485 24.5726 32.0004 23.3064 32 21.988C31.9997 20.6696 31.4835 19.4037 30.562 18.4609Z" fill="#D4D4D8" stroke="#161616" stroke-width="2" stroke-miterlimit="10" stroke-linecap="round" stroke-linejoin="round"/>
<path id="Vector_2" d="M41 41H5C3.93913 41 2.92172 40.5786 2.17157 39.8284C1.42143 39.0783 1 38.0609 1 37V1H17L22 9H45V37C45 38.0609 44.5786 39.0783 43.8284 39.8284C43.0783 40.5786 42.0609 41 41 41Z" stroke="#161616" stroke-width="2" stroke-miterlimit="10" stroke-linecap="round" stroke-linejoin="round"/>
</g>
</g>
</g>
<g id="Lines">
</g>
</g>
</g>
</g>
</svg>
