<svg width="44" height="44" viewBox="0 0 44 44" fill="none" xmlns="http://www.w3.org/2000/svg">
<rect width="44" height="44" fill="#1E1E1E"/>
<g id="Section 2">
<path d="M-1330 -756C-1330 -757.105 -1329.1 -758 -1328 -758H481C482.104 -758 483 -757.105 483 -756V2681C483 2682.1 482.105 2683 481 2683H-1328C-1329.1 2683 -1330 2682.1 -1330 2681V-756Z" fill="#404040"/>
<path d="M-1328 -757H481V-759H-1328V-757ZM482 -756V2681H484V-756H482ZM481 2682H-1328V2684H481V2682ZM-1329 2681V-756H-1331V2681H-1329ZM-1328 2682C-1328.55 2682 -1329 2681.55 -1329 2681H-1331C-1331 2682.66 -1329.66 2684 -1328 2684V2682ZM482 2681C482 2681.55 481.552 2682 481 2682V2684C482.657 2684 484 2682.66 484 2681H482ZM481 -757C481.552 -757 482 -756.552 482 -756H484C484 -757.657 482.657 -759 481 -759V-757ZM-1328 -759C-1329.66 -759 -1331 -757.657 -1331 -756H-1329C-1329 -756.552 -1328.55 -757 -1328 -757V-759Z" fill="white" fill-opacity="0.1"/>
<g id="Features 9">
<rect id="BG" x="-1217" y="-658" width="1600" height="996" fill="white"/>
<g id="List">
<g id="6">
<g id="chart-3 1">
<g id="Group">
<path id="Vector" d="M25 7C34.941 7 43 15.059 43 25C43 34.941 34.941 43 25 43C15.059 43 7 34.941 7 25" stroke="#161616" stroke-width="2" stroke-miterlimit="10" stroke-linecap="round" stroke-linejoin="round"/>
<path id="Vector_2" d="M19 1C9.059 1 1 9.059 1 19H19V1Z" fill="#D4D4D8" stroke="#161616" stroke-width="2" stroke-miterlimit="10" stroke-linecap="round" stroke-linejoin="round"/>
</g>
</g>
</g>
<g id="Lines">
</g>
</g>
</g>
</g>
</svg>
